<svg id="SvgjsSvg1001" width="288" height="288" xmlns="http://www.w3.org/2000/svg" version="1.1" xmlns:xlink="http://www.w3.org/1999/xlink" xmlns:svgjs="http://svgjs.com/svgjs"><defs id="SvgjsDefs1002"></defs><g id="SvgjsG1008"><svg xmlns="http://www.w3.org/2000/svg" enable-background="new 0 0 490 490" viewBox="0 0 490 490" width="288" height="288"><path d="M487.851,131.164c-1.975-2.576-5.04-4.083-8.277-4.083h-0.102l-352.236-0.994L102.31,51.65
	c-1.425-4.256-5.406-7.118-9.885-7.118H10.426C4.662,44.532,0,49.195,0,54.958s4.662,10.425,10.426,10.425h74.496l89.34,266.799
	c1.425,4.255,5.407,7.116,9.885,7.116h269.741v53.523H433.8c-5.596-14.921-20.083-25.382-36.561-25.382
	c-16.719,0-31.011,10.573-36.552,25.382H254.683c-5.541-14.809-19.833-25.382-36.552-25.382c-21.513,0-39.014,17.501-39.014,39.015
	s17.501,39.014,39.014,39.014c19.046,0,34.938-13.721,38.334-31.796h102.439c3.396,18.075,19.288,31.796,38.334,31.796
	c19.055,0,34.948-13.721,38.344-31.796h28.729c5.762,0,10.426-4.663,10.426-10.425v-74.374c0-5.763-4.663-10.426-10.426-10.426
	h-24.72l50.02-178.12C490.498,137.171,489.847,133.77,487.851,131.164z M218.131,424.617c-10.018,0-18.163-8.146-18.163-18.163
	c0-10.019,8.145-18.164,18.163-18.164c10.018,0,18.163,8.145,18.163,18.164C236.295,416.471,228.149,424.617,218.131,424.617z
	 M397.239,424.617c-10.018,0-18.163-8.146-18.163-18.163c0-10.019,8.146-18.164,18.163-18.164c9.02,0,16.758,6.71,18.001,15.608
	c0.112,0.834,0.173,1.69,0.173,2.555C415.413,416.471,407.257,424.617,397.239,424.617z M417.935,318.447H191.65l-57.424-171.486
	l331.552,1.114L417.935,318.447z" fill="#ffffff" class="color000 svgShape"></path></svg></g></svg>